<svg id="visual" viewBox="0 0 960 540" width="960" height="540" xmlns="http://www.w3.org/2000/svg" xmlns:xlink="http://www.w3.org/1999/xlink" version="1.1"><rect x="0" y="0" width="960" height="540" fill="#ffffff"></rect><defs><linearGradient id="grad1_0" x1="43.8%" y1="0%" x2="100%" y2="100%"><stop offset="14.444444444444446%" stop-color="#ffffff" stop-opacity="1"></stop><stop offset="85.55555555555554%" stop-color="#ffffff" stop-opacity="1"></stop></linearGradient></defs><defs><linearGradient id="grad2_0" x1="0%" y1="0%" x2="56.3%" y2="100%"><stop offset="14.444444444444446%" stop-color="#ffffff" stop-opacity="1"></stop><stop offset="85.55555555555554%" stop-color="#ffffff" stop-opacity="1"></stop></linearGradient></defs><g transform="translate(960, 0)"><path d="M0 232C-21.2 225.5 -42.3 218.9 -71.7 220.6C-101.1 222.4 -138.6 232.4 -158.7 218.4C-178.8 204.5 -181.3 166.6 -192.5 139.9C-203.8 113.1 -223.6 97.5 -234 76C-244.3 54.6 -245.2 27.3 -246 0L0 0Z" fill="#768fff"></path></g><g transform="translate(0, 540)"><path d="M0 -261C31.1 -266.5 62.1 -272 83.4 -256.8C104.7 -241.5 116.2 -205.5 134 -184.5C151.8 -163.4 175.8 -157.2 195.8 -142.2C215.7 -127.3 231.6 -103.7 241.6 -78.5C251.6 -53.3 255.8 -26.7 260 0L0 0Z" fill="#768fff"></path></g></svg>